<?xml version="1.0" encoding="UTF-8" standalone="no"?>
<!-- Created with Inkscape (http://www.inkscape.org/) -->

<svg
   width="292.58917mm"
   height="50.000031mm"
   viewBox="0 0 292.58918 50.00003"
   version="1.1"
   id="svg2160"
   xml:space="preserve"
   inkscape:version="1.2.1 (9c6d41e410, 2022-07-14)"
   sodipodi:docname="LTSER_Lockup_HL2_BK_path.svg"
   xmlns:inkscape="http://www.inkscape.org/namespaces/inkscape"
   xmlns:sodipodi="http://sodipodi.sourceforge.net/DTD/sodipodi-0.dtd"
   xmlns="http://www.w3.org/2000/svg"
   xmlns:svg="http://www.w3.org/2000/svg"><sodipodi:namedview
     id="namedview2162"
     pagecolor="#ffffff"
     bordercolor="#000000"
     borderopacity="0.25"
     inkscape:showpageshadow="2"
     inkscape:pageopacity="0.0"
     inkscape:pagecheckerboard="0"
     inkscape:deskcolor="#d1d1d1"
     inkscape:document-units="mm"
     showgrid="false"
     inkscape:zoom="0.7198092"
     inkscape:cx="767.56451"
     inkscape:cy="389.6866"
     inkscape:window-width="1920"
     inkscape:window-height="991"
     inkscape:window-x="-9"
     inkscape:window-y="-9"
     inkscape:window-maximized="1"
     inkscape:current-layer="layer1" /><defs
     id="defs2157" /><g
     inkscape:label="圖層 1"
     inkscape:groupmode="layer"
     id="layer1"
     transform="translate(-5.7334798,-46.06712)"><g
       aria-label="花蓮站"
       id="text5068"
       style="font-size:56.3877px;font-family:'OCR A Extended';-inkscape-font-specification:'OCR A Extended, Normal';letter-spacing:-3.175px;stroke-width:1.49849"><path
         id="path1634"
         style="font-family:'jf-openhuninn-2.0';-inkscape-font-specification:'jf-openhuninn-2.0, Normal'"
         d="m 275.30501,94.249969 q -2.64317,0 -3.85463,-1.156389 -1.21145,-1.101322 -1.04625,-3.634363 v -13.60133 q 0,-2.588107 1.15639,-3.744495 1.15638,-1.211455 3.74449,-1.046257 h 4.01983 V 48.490029 q 0,-2.312776 2.25771,-2.312776 2.25771,0 2.25771,2.312776 v 7.984587 h 11.78415 q 2.69824,0 2.69824,2.147578 0,2.147578 -2.69824,2.147578 h -11.78415 v 10.297363 h 7.21366 q 2.64317,0 3.79956,1.156389 1.21146,1.101322 1.04626,3.689429 v 13.491198 q 0,2.643173 -1.15639,3.799562 -1.10132,1.211454 -3.68943,1.046256 z m -27.20266,-6.607934 q 0,-1.651983 1.54185,-2.202644 l 10.2423,-2.037446 1.15639,-6.663 1.76211,-12.940536 q 0.22027,-2.037447 2.09252,-2.037447 2.36784,0 2.36784,1.98238 l -3.63436,18.777545 1.48678,-0.440529 q 1.48679,-0.440529 2.14758,-0.440529 1.87225,0 1.87225,2.037446 0,1.541851 -1.43172,2.037446 -1.43172,0.550661 -9.03085,2.533041 -7.59912,1.982381 -8.20485,1.982381 -2.36784,0 -2.36784,-2.588108 z m 0.11013,-29.790767 q 0,-2.147578 2.47798,-2.147578 h 6.663 v -6.828198 q 0,-2.422909 2.25771,-2.422909 2.25771,0 2.25771,2.422909 v 6.828198 h 6.27754 q 2.53304,0 2.53304,2.202645 0,2.147578 -2.53304,2.147578 h -17.45596 q -2.47798,0 -2.47798,-2.202645 z m 2.25771,7.158595 q -0.27533,-2.257711 2.03745,-2.257711 1.37665,0 1.98238,1.70705 l 0.55066,3.083702 1.26652,11.233487 q 0.11013,0.99119 -0.44053,1.486785 -0.55066,0.495595 -1.70705,0.495595 -1.87224,0 -2.14757,-2.808372 -0.38547,-4.24009 -1.54186,-12.940536 z M 274.69928,87.8623 q 0,2.147578 2.25771,2.25771 h 12.33481 q 2.14758,0 2.25771,-2.312776 V 77.509871 q 0,-2.202645 -2.25771,-2.312777 h -12.33481 q -2.14757,0 -2.25771,2.25771 z m -48.53208,3.028636 q -2.03744,0 -2.03744,-1.927314 V 86.926176 H 210.4183 q -0.93613,0 -1.43172,-0.440529 -0.4956,-0.440529 -0.4956,-1.266521 0,-1.707049 1.92732,-1.707049 h 13.71146 v -2.533041 h -8.75551 q -4.2401,0 -4.2401,-4.019827 v -6.883264 q 0,-1.98238 1.04626,-2.97357 1.10132,-1.046256 3.19384,-1.046256 h 8.75551 v -2.367843 h -12.77534 q -1.98238,0 -1.98238,-1.762115 0,-1.762116 1.98238,-1.762116 h 12.77534 v -1.541851 q 0,-0.881058 0.49559,-1.321587 0.55066,-0.495595 1.54185,-0.495595 2.09252,0 2.09252,1.817182 v 1.541851 h 13.60133 q 2.03744,0 2.03744,1.762116 0,1.762115 -2.03744,1.762115 h -13.60133 v 2.367843 h 9.03084 q 2.09251,0 3.19383,1.046256 1.15639,0.99119 1.15639,2.97357 v 6.883264 q 0,4.019827 -4.35022,4.019827 h -9.03084 v 2.533041 h 13.93172 q 1.98238,0 1.98238,1.707049 0,0.825992 -0.55066,1.266521 -0.49559,0.440529 -1.43172,0.440529 h -13.93172 v 2.037446 q 0,1.927314 -2.09252,1.927314 z m -31.27755,1.541851 q 0,-1.541851 2.14758,-2.422909 l 4.68062,-2.257711 0.27533,-0.110132 v -6.828198 q 0,-0.715859 -0.44053,-1.101322 -0.38546,-0.440529 -1.15639,-0.495595 h -3.13877 q -2.25771,0 -2.25771,-1.927314 0,-1.98238 2.25771,-1.98238 h 4.84582 q 2.25771,0 3.2489,0.99119 0.99119,0.936124 0.88106,3.138769 v 6.773131 q 1.81718,2.588108 4.68062,3.634364 3.85463,1.376653 16.7401,1.376653 l 15.03305,-0.330397 q 2.42291,-0.110132 2.42291,2.092512 0,2.257711 -3.7445,2.257711 L 225.50641,95.07596 q -11.12335,-0.05507 -14.86785,-1.26652 -3.52423,-1.101322 -5.78194,-3.68943 -6.00221,4.625554 -7.87446,4.625554 -2.09251,0 -2.09251,-2.312777 z m 0.3304,-40.748923 q 0,-1.927314 2.20264,-1.927314 h 11.17842 v -1.762116 q 0,-1.927314 2.14758,-1.927314 2.14758,0 2.14758,1.927314 v 1.762116 h 13.87666 v -1.762116 q 0,-0.99119 0.4956,-1.431719 0.55066,-0.495595 1.65198,-0.495595 2.09251,0 2.09251,1.927314 v 1.762116 h 11.61895 q 2.25771,0 2.25771,1.927314 0,1.927314 -2.25771,1.927314 h -11.61895 v 1.541851 q 0,1.046256 -0.49559,1.541851 -0.4956,0.440529 -1.59692,0.440529 -1.10132,0 -1.65198,-0.440529 -0.4956,-0.495595 -0.4956,-1.541851 v -1.541851 h -13.87666 v 2.147578 q 0,1.98238 -2.14758,1.98238 -2.14758,0 -2.14758,-1.98238 v -2.147578 h -11.17842 q -2.20264,0 -2.20264,-1.927314 z m 1.98238,16.519834 q 0,-2.037447 2.20264,-2.037447 0.77093,0 3.46917,1.376653 2.69824,1.321587 2.69824,2.69824 0,2.092512 -2.03745,2.092512 -0.49559,0 -1.87225,-0.770926 l -1.32158,-0.715859 q -0.6608,-0.440529 -1.54185,-0.881058 -1.59692,-0.825992 -1.59692,-1.762115 z m 2.36784,-7.544058 q 0,-2.037446 2.14758,-2.037446 0.82599,0 3.52423,1.376653 2.64317,1.321587 2.64317,2.698239 0,2.092513 -1.98238,2.092513 -0.55066,0 -2.97357,-1.376653 l -1.43172,-0.770926 q -1.92731,-1.046256 -1.92731,-1.98238 z m 15.63878,15.748908 q 0,1.431719 1.37665,1.431719 h 7.54406 v -2.863438 h -8.92071 z m 8.92071,-4.515421 v -2.643173 h -7.54406 q -0.71586,0 -1.04626,0.330396 -0.33039,0.330397 -0.33039,1.046257 v 1.26652 z m 11.83921,5.94714 q 1.37665,0 1.37665,-1.431719 v -1.431719 h -9.0859 v 2.863438 z m 1.37665,-5.94714 v -1.26652 q 0,-1.376653 -1.37665,-1.376653 h -7.70925 v 2.643173 z m -62.24354,22.411908 q -4.01982,-0.110132 -5.56168,-0.936124 -1.43171,-0.825992 -1.54185,-3.414099 v -26.21147 q 0,-2.367842 2.25771,-2.367842 2.14758,0 2.14758,2.367842 v 9.691636 q 5.94714,-3.028636 11.28856,-7.433925 1.21145,-1.046256 2.31277,-1.046256 2.47798,0 2.47798,2.367843 0,2.808372 -11.12336,8.039652 l -4.95595,2.202645 v 10.077098 q 0,1.046256 0.60573,1.651984 0.77093,0.660793 3.7445,0.660793 l 3.2489,0.05507 q 4.12995,0.05507 5.61674,-0.660793 1.04626,-0.550661 1.48678,-3.68943 0.38547,-2.863438 2.42291,-2.863438 2.36785,0 2.36785,2.037447 l -0.22027,2.367842 q -0.27533,2.808372 -1.32158,4.405289 -0.9912,1.651984 -2.86344,2.202645 -1.98238,0.550661 -8.81058,0.550661 z M 141.84215,81.254366 q 0,-1.156388 1.21145,-2.202644 6.93833,-6.442735 11.06829,-15.30838 1.10133,-2.367842 2.42291,-2.367842 2.25771,0 2.25771,2.202644 0,1.156388 -2.7533,5.396479 v 24.889883 q 0,2.202644 -2.20265,2.202644 -2.20264,0 -2.20264,-2.202644 v -18.55728 q -6.05727,8.094719 -7.76432,8.094719 -2.03745,0 -2.03745,-2.147579 z m 0.27533,-27.533056 q 0,-2.092512 2.47798,-2.092512 h 11.39868 v -3.193835 q 0,-1.156388 0.4956,-1.707049 0.49559,-0.550661 1.65198,-0.550661 2.09251,0 2.09251,2.25771 v 3.193835 h 12.72027 v -3.193835 q 0,-2.25771 2.14758,-2.25771 2.14758,0 2.14758,2.25771 v 3.193835 h 11.78415 q 1.21145,0 1.87225,0.550661 0.66079,0.495595 0.66079,1.541851 0,2.037446 -2.53304,2.037446 h -11.78415 v 2.97357 q 0,2.202645 -2.14758,2.202645 -2.14758,0 -2.14758,-2.202645 v -2.97357 h -12.72027 v 2.97357 q 0,1.156389 -0.49559,1.70705 -0.4956,0.495595 -1.59692,0.495595 -1.15639,0 -1.65198,-0.495595 -0.4956,-0.550661 -0.4956,-1.70705 v -2.97357 h -11.39868 q -2.47798,0 -2.47798,-2.037446 z M 122.7269,95.872962 c -0.17334,-0.103131 -2.20615,-5.062043 -4.51734,-11.019792 l -4.20219,-10.832269 -5.48964,-0.0047 c -4.40739,-0.0036 -5.53708,-0.06172 -5.73031,-0.29454 -0.16641,-0.200516 -0.22297,-1.480874 -0.1833,-4.149652 l 0.0573,-3.859671 7.35382,-0.105055 7.35382,-0.105054 1.06946,-0.564306 c 2.03366,-1.073071 3.02766,-2.691942 3.02766,-4.930937 0,-1.622921 -0.39111,-2.640014 -1.42849,-3.714835 -1.59073,-1.648127 -1.83431,-1.706095 -7.50036,-1.784927 -3.07719,-0.04282 -5.14448,-0.155341 -5.30526,-0.288775 -0.36575,-0.303553 -0.37609,-7.534376 -0.0113,-7.899184 0.18248,-0.182457 1.68275,-0.252129 5.42924,-0.252129 4.42661,0 5.40691,0.05878 6.7625,0.40548 5.32549,1.362032 9.28941,5.54159 10.3684,10.932462 1.10112,5.501406 -1.59923,11.645747 -6.33888,14.423362 -0.50892,0.298245 -0.9253,0.587831 -0.9253,0.643523 0,0.05569 1.98553,5.194591 4.41229,11.419772 2.42675,6.225186 4.41229,11.455273 4.41229,11.622412 0,0.167139 -0.14955,0.361282 -0.33235,0.431424 -0.52394,0.201052 -7.9313,0.135972 -8.28213,-0.07277 z M 5.793019,95.600519 C 5.737987,95.456071 5.717344,84.322908 5.7470995,70.860173 l 0.054079,-24.477711 h 4.0971239 4.0971296 l 0.05354,20.538163 0.05354,20.538164 h 7.030232 c 6.735543,0 7.039343,0.01703 7.24773,0.406409 0.286378,0.535103 0.286378,7.056448 0,7.591552 -0.210838,0.39395 -0.558691,0.406403 -11.35249,0.406403 -8.7145747,0 -11.1567228,-0.05705 -11.2349945,-0.262634 z m 39.298012,0.0218 c -0.06289,-0.163888 -0.08849,-2.044096 -0.0569,-4.178237 l 0.05744,-3.88026 0.525272,-0.05926 c 5.720501,-0.645328 9.900199,-3.426525 12.270418,-8.164796 1.180727,-2.360384 1.3798,-3.578933 1.385293,-8.47962 0.0077,-6.82829 0.464472,-9.557082 2.198341,-13.131818 2.639578,-5.44205 7.432823,-9.332328 13.536252,-10.986243 l 2.021016,-0.547658 11.465933,-0.07781 c 9.819002,-0.06663 11.502206,-0.03412 11.718434,0.226413 0.18123,0.218371 0.23629,1.393412 0.19512,4.163888 l -0.0573,3.859659 -11.345897,0.108611 -11.345893,0.10861 -1.470768,0.513782 c -2.967173,1.036514 -5.735334,3.437389 -7.121057,6.176227 -1.09459,2.163421 -1.209782,2.957985 -1.389785,9.586337 -0.187396,6.90056 -0.333087,7.789485 -1.854206,11.313211 -3.279099,7.596155 -10.641807,12.869756 -18.993327,13.604136 -1.304267,0.114692 -1.646483,0.08414 -1.738318,-0.155179 z m 40.381695,-0.07328 C 82.714478,94.78741 79.87533,92.523372 78.752623,90.190186 77.556474,87.704369 77.553436,87.662082 77.553436,73.484394 c 0,-9.866476 0.06145,-13.107095 0.252129,-13.297783 0.266054,-0.266054 7.164815,-0.375975 7.819888,-0.124596 0.279245,0.107151 0.332348,0.559772 0.332348,2.832798 v 2.705272 l 5.200201,0.05622 5.200202,0.05623 v 4.09713 4.097128 l -5.200202,0.05616 -5.200201,0.05622 v 5.676023 c 0,6.110321 0.104382,6.820008 1.085287,7.379018 0.373461,0.212826 2.320833,0.304618 8.159513,0.384599 l 7.668989,0.105055 v 4.09713 4.097124 l -8.194259,0.03496 c -6.253934,0.02668 -8.433495,-0.03109 -9.204605,-0.244011 z M 35.465171,94.937926 c -0.440998,-0.162506 -0.99801,-0.469917 -1.237802,-0.683136 -0.581094,-0.516699 -1.207843,-1.917141 -1.207843,-2.698869 0,-0.866088 0.664947,-2.254974 1.330085,-2.778172 0.492181,-0.387147 0.551637,-0.577955 0.551377,-1.769418 l -2.1e-4,-1.335467 -1.312893,-0.384266 c -3.034982,-0.888273 -5.430039,-2.931189 -6.865778,-5.856255 -1.407041,-2.866596 -1.578562,-5.688233 -0.553011,-9.097445 0.173813,-0.577798 2.382659,-4.78523 4.908549,-9.349853 4.946618,-8.939206 5.171031,-9.244955 6.30686,-8.592825 0.627295,0.360155 9.285219,15.8492 9.911991,17.732574 2.231746,6.706102 -1.092048,13.500204 -7.457652,15.244035 l -1.260654,0.345356 -0.06248,1.289573 c -0.05958,1.229739 -0.02829,1.323771 0.674352,2.026406 0.830373,0.830377 1.269653,2.124839 1.059164,3.121139 -0.468115,2.215719 -2.740842,3.539537 -4.784059,2.786623 z M 22.388279,54.412376 c -0.05687,-0.14817 -0.07753,-2.015512 -0.04592,-4.149654 l 0.05741,-3.88026 14.274103,-0.05401 c 11.280226,-0.04271 14.309275,0.0012 14.441785,0.210104 0.282692,0.445277 0.211944,7.601123 -0.07802,7.891084 -0.181306,0.181301 -1.583074,0.251628 -4.990092,0.250347 l -4.737961,-0.0018 -0.840437,-1.593439 c -0.462241,-0.876379 -1.104746,-1.818581 -1.427792,-2.093772 -0.86911,-0.740359 -2.142555,-1.028962 -3.186309,-0.722111 -1.13874,0.334784 -1.867714,1.067818 -2.873584,2.889606 l -0.841061,1.523298 h -4.824387 c -3.73025,0 -4.84783,-0.0611 -4.927763,-0.269395 z" /></g></g></svg>
